<svg width="60" height="60" viewBox="0 0 60 60" fill="none" xmlns="http://www.w3.org/2000/svg">
<rect x="0.5" y="0.5" width="59" height="59" rx="11.5" stroke="#76D1A9"/>
<path d="M17.8633 32.3535L17.8441 39.6982C17.8441 41.687 19.7295 43.8168 22.0383 44.4432L28.1758 46.1032C29.234 46.3851 30.9848 46.3851 32.0622 46.1032L38.1997 44.4432C40.5085 43.8168 42.394 41.687 42.394 39.6982V32.4318M48.2044 35.3603V25.9641" stroke="#76D1A9" stroke-width="2" stroke-linecap="round" stroke-linejoin="round"/>
<path d="M26.3673 15.832L14.785 21.9864C11.0717 23.9596 11.0717 28.3758 14.785 30.349L26.3673 36.5035C28.4452 37.6154 31.8698 37.6154 33.9477 36.5035L45.4723 30.349C49.1664 28.3758 49.1664 23.9753 45.4723 22.0021L33.9477 15.8476C31.8698 14.7201 28.4452 14.7201 26.3673 15.832Z" stroke="#76D1A9" stroke-width="2" stroke-linecap="round" stroke-linejoin="round"/>
</svg>
